# xmcd
#
# Track frame offsets:
#  150
#  14709
#  32259
#  48836
#  61281
#  74256
#  97231
#  117504
#  135946
#  154007
#  173141
#  191741
#  208226
#  228941
#  251068
#
# Disc length: 3556 seconds
#
# Revision: 0
# Processed by: cddbd v1.5.1PL2 Copyright (c) Steve Scherf et al.
# Submitted via: Collectorz.com_Music_Collector 6.9
#
DISCID=d10de20f
DTITLE=Fern Kinney - Together We Are Beautiful - Disc 2
DYEAR=2003
DGENRE=General R&B
TTITLE0=It's Alright
TTITLE1=No One But You
TTITLE2=Tonight
TTITLE3=Most Girls
TTITLE4=Pipin' Hot
TTITLE5=Sweet Music Man
TTITLE6=I'm Ready For Your Love
TTITLE7=Beautiful Love Song
TTITLE8=Boogie Box
TTITLE9=Easy Lovin'
TTITLE10=Nothing Takes The Place Of You
TTITLE11=Don't Make Me Wait
TTITLE12=If Tomorrow Never Comes
TTITLE13=It's Alright My Love
TTITLE14=In Paradise?
EXTD=
EXTT0=
EXTT1=
EXTT2=
EXTT3=
EXTT4=
EXTT5=
EXTT6=
EXTT7=
EXTT8=
EXTT9=
EXTT10=
EXTT11=
EXTT12=
EXTT13=
EXTT14=
PLAYORDER=
